<svg xmlns="http://www.w3.org/2000/svg" xmlns:xlink="http://www.w3.org/1999/xlink" viewBox="0 0 430 430" width="430" height="430" preserveAspectRatio="xMidYMid meet" style="width: 100%; height: 100%; transform: translate3d(0px, 0px, 0px); content-visibility: visible;"><defs><clipPath id="__lottie_element_3109"><rect width="430" height="430" x="0" y="0"/></clipPath><clipPath id="__lottie_element_3111"><path d="M0,0 L430,0 L430,430 L0,430z"/></clipPath><clipPath id="__lottie_element_3116"><path d="M0,0 L430,0 L430,430 L0,430z"/></clipPath><clipPath id="__lottie_element_3120"><path d="M0,0 L430,0 L430,430 L0,430z"/></clipPath><clipPath id="__lottie_element_3209"><path d="M0,0 L430,0 L430,430 L0,430z"/></clipPath><clipPath id="__lottie_element_3213"><path d="M0,0 L430,0 L430,430 L0,430z"/></clipPath></defs><g clip-path="url(#__lottie_element_3109)"><g clip-path="url(#__lottie_element_3111)" transform="matrix(1,0,0,1,0,0)" opacity="1" style="display: block;"><g clip-path="url(#__lottie_element_3116)" transform="matrix(1,0,0,1,0,0)" opacity="1" style="display: block;"><g transform="matrix(0.9999996423721313,-0.0008203046745620668,0.0008203046745620668,0.9999996423721313,-35.190277099609375,-34.92668151855469)" opacity="1" style="display: block;"><g opacity="1" transform="matrix(1,0,0,1,209.99600219726562,160.10699462890625)"><path class="primary" fill="rgb(235,230,239)" fill-opacity="1" d=" M-49.862998962402344,-70.22599792480469 C-49.862998962402344,-70.22599792480469 49.862998962402344,-70.22599792480469 49.862998962402344,-70.22599792480469 C88.64800262451172,-70.22599792480469 120.08899688720703,-38.78499984741211 120.08899688720703,0 C120.08899688720703,0 120.08899688720703,0 120.08899688720703,0 C120.08899688720703,38.78499984741211 88.64800262451172,70.22599792480469 49.862998962402344,70.22599792480469 C49.862998962402344,70.22599792480469 -120.08899688720703,70.22599792480469 -120.08899688720703,70.22599792480469 C-120.08899688720703,70.22599792480469 -120.08899688720703,0 -120.08899688720703,0 C-120.08899688720703,-38.78499984741211 -88.64800262451172,-70.22599792480469 -49.862998962402344,-70.22599792480469z"/></g><g opacity="0.5" transform="matrix(1,0,0,1,134.02000427246094,160.11000061035156)" style="mix-blend-mode: multiply;"><path class="primary" fill="rgb(235,230,239)" fill-opacity="1" d=" M44.11000061035156,-70.2249984741211 C5.329999923706055,-70.2249984741211 -26.110000610351562,-38.78499984741211 -26.110000610351562,-0.004999999888241291 C-26.110000610351562,-0.004999999888241291 -26.110000610351562,70.2249984741211 -26.110000610351562,70.2249984741211 C-26.110000610351562,70.2249984741211 -44.11000061035156,70.2249984741211 -44.11000061035156,70.2249984741211 C-44.11000061035156,70.2249984741211 -44.11000061035156,-0.004999999888241291 -44.11000061035156,-0.004999999888241291 C-44.11000061035156,-38.78499984741211 -12.670000076293945,-70.2249984741211 26.110000610351562,-70.2249984741211 C26.110000610351562,-70.2249984741211 44.11000061035156,-70.2249984741211 44.11000061035156,-70.2249984741211z"/></g></g><g transform="matrix(1,0,0,1,175.20799255371094,125)" opacity="1" style="display: block;"><g opacity="1" transform="matrix(1,0,0,1,0,0)"/></g><g transform="matrix(1,0,0,1,-35.001007080078125,-34.998992919921875)" opacity="1" style="display: block;"><g opacity="1" transform="matrix(1,0,0,1,207.0279998779297,160.10699462890625)"><path stroke-linecap="round" stroke-linejoin="round" fill-opacity="0" class="tertiary" stroke="rgb(242,76,0)" stroke-opacity="1" stroke-width="7" d=" M-30.02899932861328,0 C-30.02899932861328,17.378999710083008 -16.583999633789062,31.466999053955078 0,31.466999053955078 C16.583999633789062,31.466999053955078 30.02899932861328,17.378999710083008 30.02899932861328,0 C30.02899932861328,-17.378999710083008 16.583999633789062,-31.466999053955078 0,-31.466999053955078 C-16.583999633789062,-31.466999053955078 -30.02899932861328,-17.378999710083008 -30.02899932861328,0z"/></g><g opacity="1" transform="matrix(1,0,0,1,228.51199340820312,181.88600158691406)"><path stroke-linecap="round" stroke-linejoin="round" fill-opacity="0" class="tertiary" stroke="rgb(242,76,0)" stroke-opacity="1" stroke-width="7" d=" M-10.479999542236328,-9.67300033569336 C-10.479999542236328,-9.67300033569336 10.479999542236328,9.67300033569336 10.479999542236328,9.67300033569336"/></g></g></g><g clip-path="url(#__lottie_element_3120)" transform="matrix(1,0,0,1,0,0)" opacity="1" style="display: block;"><g transform="matrix(0.9272741079330444,0.3743831217288971,-0.3743831217288971,0.9272741079330444,147.284423828125,-182.53292846679688)" opacity="1" style="display: block;"><g opacity="1" transform="matrix(1,0,0,1,290.0299987792969,336.9989929199219)"><path class="secondary" fill="rgb(75,179,253)" fill-opacity="1" d=" M23.568361282348633,-122.81616973876953 C23.568361282348633,-122.81616973876953 -113.49893951416016,-122.81616973876953 -113.49893951416016,-122.81616973876953 C-166.80613708496094,-122.81616973876953 -210.02047729492188,-79.60183715820312 -210.02047729492188,-26.29463768005371 C-210.02047729492188,-26.29463768005371 -210.02047729492188,-26.29463768005371 -210.02047729492188,-26.29463768005371 C-210.02047729492188,27.012557983398438 -166.80613708496094,70.22599792480469 -113.49893951416016,70.22599792480469 C-113.49893951416016,70.22599792480469 114.59191131591797,70.22599792480469 114.59191131591797,70.22599792480469 C117.62825775146484,70.22599792480469 120.08899688720703,67.7652587890625 120.08899688720703,64.7289047241211 C120.08899688720703,64.7289047241211 120.08899688720703,-26.29463768005371 120.08899688720703,-26.29463768005371 C120.08899688720703,-79.60183715820312 76.87555694580078,-122.81616973876953 23.568361282348633,-122.81616973876953z"/></g><g opacity="0.5" transform="matrix(1,0,0,1,214.05499267578125,337)" style="mix-blend-mode: multiply;"><path class="secondary" fill="rgb(75,179,253)" fill-opacity="1" d=" M-81.03426361083984,41.952205657958984 C-63.56496810913086,59.4214973449707 -39.43010330200195,70.2249984741211 -12.779845237731934,70.2249984741211 C-12.779845237731934,70.2249984741211 -37.5191535949707,70.2249984741211 -37.5191535949707,70.2249984741211 C-64.1694107055664,70.2249984741211 -88.30427551269531,59.4214973449707 -105.77356719970703,41.952205657958984 C-123.24285888671875,24.482912063598633 -134.0455780029297,0.3624066114425659 -134.0455780029297,-26.301319122314453 C-134.0455780029297,-79.60183715820312 -90.83313751220703,-122.81427764892578 -37.5191535949707,-122.81427764892578 C-37.5191535949707,-122.81427764892578 -12.779845237731934,-122.81427764892578 -12.779845237731934,-122.81427764892578 C-66.09382629394531,-122.81427764892578 -109.30615997314453,-79.60183715820312 -109.30615997314453,-26.301319122314453 C-109.30615997314453,0.3624066114425659 -98.50355529785156,24.482912063598633 -81.03426361083984,41.952205657958984z"/></g></g><g transform="matrix(0.9272741079330444,0.3743831217288971,-0.3743831217288971,0.9272741079330444,290.05499267578125,238.53985595703125)" opacity="1" style="display: block;"><g opacity="1" transform="matrix(1,0,0,1,0,0)"/></g><g transform="matrix(0.9272741079330444,0.3743831217288971,-0.3743831217288971,0.9272741079330444,147.2847900390625,-182.5338592529297)" opacity="1" style="display: block;"><g opacity="1" transform="matrix(1,0,0,1,292.0299987792969,336.9989929199219)"><path stroke-linecap="round" stroke-linejoin="round" fill-opacity="0" class="primary" stroke="rgb(235,230,239)" stroke-opacity="1" stroke-width="7" d=" M-2.995858669281006,30.557296752929688 C-2.995858669281006,30.557296752929688 -46.77574920654297,-72.33964538574219 -46.77574920654297,-72.33964538574219 C-46.77574920654297,-72.33964538574219 -93.56343078613281,30.557296752929688 -93.56343078613281,30.557296752929688"/></g><g opacity="1" transform="matrix(1,0,0,1,292.2550048828125,352.9280090332031)"><path stroke-linecap="round" stroke-linejoin="round" fill-opacity="0" class="primary" stroke="rgb(235,230,239)" stroke-opacity="1" stroke-width="7" d=" M-13.993112564086914,-10.689929008483887 C-13.993112564086914,-10.689929008483887 -82.27613830566406,-10.689929008483887 -82.27613830566406,-10.689929008483887"/></g></g></g><g clip-path="url(#__lottie_element_3209)" transform="matrix(1,0,0,1,0,0)" opacity="1" style="display: none;"><g transform="matrix(1,0,0,1,-35,-34.998992919921875)" opacity="1" style="display: block;"><g opacity="1" transform="matrix(1,0,0,1,290.0299987792969,336.9989929199219)"><path class="secondary" fill="rgb(75,179,253)" fill-opacity="1" d=" M49.862998962402344,-70.22599792480469 C49.862998962402344,-70.22599792480469 -49.862998962402344,-70.22599792480469 -49.862998962402344,-70.22599792480469 C-88.64800262451172,-70.22599792480469 -120.08899688720703,-38.78499984741211 -120.08899688720703,0 C-120.08899688720703,0 -120.08899688720703,0 -120.08899688720703,0 C-120.08899688720703,38.78499984741211 -88.64800262451172,70.22599792480469 -49.862998962402344,70.22599792480469 C-49.862998962402344,70.22599792480469 116.08899688720703,70.22599792480469 116.08899688720703,70.22599792480469 C118.2979965209961,70.22599792480469 120.08899688720703,68.43499755859375 120.08899688720703,66.22599792480469 C120.08899688720703,66.22599792480469 120.08899688720703,0 120.08899688720703,0 C120.08899688720703,-38.78499984741211 88.64800262451172,-70.22599792480469 49.862998962402344,-70.22599792480469z"/></g><g opacity="0.5" transform="matrix(1,0,0,1,214.05499267578125,337)" style="mix-blend-mode: multiply;"><path class="secondary" fill="rgb(75,179,253)" fill-opacity="1" d=" M-5.545000076293945,49.654998779296875 C7.164999961853027,62.3650016784668 24.725000381469727,70.2249984741211 44.1150016784668,70.2249984741211 C44.1150016784668,70.2249984741211 26.114999771118164,70.2249984741211 26.114999771118164,70.2249984741211 C6.724999904632568,70.2249984741211 -10.835000038146973,62.3650016784668 -23.545000076293945,49.654998779296875 C-36.255001068115234,36.94499969482422 -44.1150016784668,19.395000457763672 -44.1150016784668,-0.004999999888241291 C-44.1150016784668,-38.78499984741211 -12.675000190734863,-70.2249984741211 26.114999771118164,-70.2249984741211 C26.114999771118164,-70.2249984741211 44.1150016784668,-70.2249984741211 44.1150016784668,-70.2249984741211 C5.324999809265137,-70.2249984741211 -26.114999771118164,-38.78499984741211 -26.114999771118164,-0.004999999888241291 C-26.114999771118164,19.395000457763672 -18.2549991607666,36.94499969482422 -5.545000076293945,49.654998779296875z"/></g></g><g transform="matrix(1,0,0,1,255.02999877929688,302)" opacity="1" style="display: block;"><g opacity="1" transform="matrix(1,0,0,1,0,0)"/></g><g transform="matrix(1,0,0,1,-35,-35)" opacity="1" style="display: block;"><g opacity="1" transform="matrix(1,0,0,1,292.0299987792969,336.9989929199219)"><path stroke-linecap="round" stroke-linejoin="round" fill-opacity="0" class="primary" stroke="rgb(235,230,239)" stroke-opacity="1" stroke-width="7" d=" M27.604000091552734,31.363000869750977 C27.604000091552734,31.363000869750977 0.9160000085830688,-31.363000869750977 0.9160000085830688,-31.363000869750977 C0.9160000085830688,-31.363000869750977 -27.604000091552734,31.363000869750977 -27.604000091552734,31.363000869750977"/></g><g opacity="1" transform="matrix(1,0,0,1,292.2550048828125,352.9280090332031)"><path stroke-linecap="round" stroke-linejoin="round" fill-opacity="0" class="primary" stroke="rgb(235,230,239)" stroke-opacity="1" stroke-width="7" d=" M20.812000274658203,0 C20.812000274658203,0 -20.812000274658203,0 -20.812000274658203,0"/></g></g></g><g clip-path="url(#__lottie_element_3213)" transform="matrix(1,0,0,1,0,0)" opacity="1" style="display: none;"><g transform="matrix(0.9999996423721313,-0.0008203046745620668,0.0008203046745620668,0.9999996423721313,-35.190277099609375,-34.92668151855469)" opacity="1" style="display: block;"><g opacity="1" transform="matrix(1,0,0,1,209.99600219726562,160.10699462890625)"><path class="primary" fill="rgb(235,230,239)" fill-opacity="1" d=" M-49.862998962402344,-70.22599792480469 C-49.862998962402344,-70.22599792480469 49.862998962402344,-70.22599792480469 49.862998962402344,-70.22599792480469 C88.64800262451172,-70.22599792480469 120.08899688720703,-38.78499984741211 120.08899688720703,0 C120.08899688720703,0 120.08899688720703,0 120.08899688720703,0 C120.08899688720703,38.78499984741211 88.64800262451172,70.22599792480469 49.862998962402344,70.22599792480469 C49.862998962402344,70.22599792480469 -120.08899688720703,70.22599792480469 -120.08899688720703,70.22599792480469 C-120.08899688720703,70.22599792480469 -120.08899688720703,0 -120.08899688720703,0 C-120.08899688720703,-38.78499984741211 -88.64800262451172,-70.22599792480469 -49.862998962402344,-70.22599792480469z"/></g><g opacity="0.5" transform="matrix(1,0,0,1,134.02000427246094,160.11000061035156)" style="mix-blend-mode: multiply;"><path class="primary" fill="rgb(235,230,239)" fill-opacity="1" d=" M44.11000061035156,-70.2249984741211 C5.329999923706055,-70.2249984741211 -26.110000610351562,-38.78499984741211 -26.110000610351562,-0.004999999888241291 C-26.110000610351562,-0.004999999888241291 -26.110000610351562,70.2249984741211 -26.110000610351562,70.2249984741211 C-26.110000610351562,70.2249984741211 -44.11000061035156,70.2249984741211 -44.11000061035156,70.2249984741211 C-44.11000061035156,70.2249984741211 -44.11000061035156,-0.004999999888241291 -44.11000061035156,-0.004999999888241291 C-44.11000061035156,-38.78499984741211 -12.670000076293945,-70.2249984741211 26.110000610351562,-70.2249984741211 C26.110000610351562,-70.2249984741211 44.11000061035156,-70.2249984741211 44.11000061035156,-70.2249984741211z"/></g></g><g transform="matrix(1,0,0,1,175.20799255371094,125)" opacity="1" style="display: block;"><g opacity="1" transform="matrix(1,0,0,1,0,0)"/></g><g transform="matrix(1,0,0,1,-35.001007080078125,-34.998992919921875)" opacity="1" style="display: block;"><g opacity="1" transform="matrix(1,0,0,1,207.0279998779297,160.10699462890625)"><path stroke-linecap="round" stroke-linejoin="round" fill-opacity="0" class="tertiary" stroke="rgb(242,76,0)" stroke-opacity="1" stroke-width="7" d=" M-30.02899932861328,0 C-30.02899932861328,17.378999710083008 -16.583999633789062,31.466999053955078 0,31.466999053955078 C16.583999633789062,31.466999053955078 30.02899932861328,17.378999710083008 30.02899932861328,0 C30.02899932861328,-17.378999710083008 16.583999633789062,-31.466999053955078 0,-31.466999053955078 C-16.583999633789062,-31.466999053955078 -30.02899932861328,-17.378999710083008 -30.02899932861328,0z"/></g><g opacity="1" transform="matrix(1,0,0,1,228.51199340820312,181.88600158691406)"><path stroke-linecap="round" stroke-linejoin="round" fill-opacity="0" class="tertiary" stroke="rgb(242,76,0)" stroke-opacity="1" stroke-width="7" d=" M-10.479999542236328,-9.67300033569336 C-10.479999542236328,-9.67300033569336 10.479999542236328,9.67300033569336 10.479999542236328,9.67300033569336"/></g></g></g></g></g></svg>